<svg width="519" height="77.5%" viewBox="0 0 519 647" fill="none" xmlns="http://www.w3.org/2000/svg">
<path d="M0.986816 62.1431C0.986816 34.5745 0.986816 20.7902 6.77129 12.8804C11.8158 5.98253 19.5626 1.56331 28.0676 0.731773C37.8203 -0.22175 49.6858 6.79382 73.4166 20.825L495.419 270.339C504.01 275.419 508.306 277.959 511.428 281.477C514.191 284.59 516.275 288.244 517.549 292.207C518.989 296.685 518.989 301.675 518.989 311.657V599C518.989 615.802 518.989 624.202 515.719 630.62C512.843 636.265 508.253 640.854 502.609 643.73C496.191 647 487.79 647 470.989 647H48.9868C32.1852 647 23.7845 647 17.3671 643.73C11.7222 640.854 7.13282 636.265 4.25662 630.62C0.986816 624.202 0.986816 615.802 0.986816 599V62.1431Z" fill="url(#paint0_linear_28_2188)"/>
<defs>
<linearGradient id="paint0_linear_28_2188" x1="259.988" y1="72.0216" x2="259.988" y2="647" gradientUnits="userSpaceOnUse">
<stop stop-color="#FF6652" stop-opacity="0"/>
<stop offset="1" stop-color="#FF6652"/>
</linearGradient>
</defs>
</svg>
